<mxfile host="65bd71144e">
    <diagram id="xYvHM9Kvb8o_fFxxELRO" name="Page-1">
        <mxGraphModel dx="1348" dy="916" grid="1" gridSize="10" guides="1" tooltips="1" connect="1" arrows="1" fold="1" page="1" pageScale="1" pageWidth="850" pageHeight="1100" math="0" shadow="0">
            <root>
                <mxCell id="0"/>
                <mxCell id="1" parent="0"/>
                <mxCell id="2" value="" style="verticalLabelPosition=bottom;shadow=0;dashed=0;align=center;html=1;verticalAlign=top;shape=mxgraph.electrical.transistors.npn_transistor_5;" parent="1" vertex="1">
                    <mxGeometry x="390" y="350" width="64" height="100" as="geometry"/>
                </mxCell>
                <mxCell id="3" value="" style="pointerEvents=1;verticalLabelPosition=bottom;shadow=0;dashed=0;align=center;html=1;verticalAlign=top;shape=mxgraph.electrical.resistors.resistor_2;direction=south;" vertex="1" parent="1">
                    <mxGeometry x="230" y="200" width="20" height="100" as="geometry"/>
                </mxCell>
                <mxCell id="4" value="" style="pointerEvents=1;verticalLabelPosition=bottom;shadow=0;dashed=0;align=center;html=1;verticalAlign=top;shape=mxgraph.electrical.resistors.resistor_2;direction=south;" vertex="1" parent="1">
                    <mxGeometry x="230" y="520" width="20" height="100" as="geometry"/>
                </mxCell>
                <mxCell id="5" value="" style="pointerEvents=1;verticalLabelPosition=bottom;shadow=0;dashed=0;align=center;html=1;verticalAlign=top;shape=mxgraph.electrical.resistors.resistor_2;direction=south;" vertex="1" parent="1">
                    <mxGeometry x="448" y="520" width="21" height="100" as="geometry"/>
                </mxCell>
                <mxCell id="6" value="" style="endArrow=none;html=1;entryX=1;entryY=0.5;entryDx=0;entryDy=0;entryPerimeter=0;exitX=0;exitY=0.5;exitDx=0;exitDy=0;exitPerimeter=0;" edge="1" parent="1" source="4" target="3">
                    <mxGeometry width="50" height="50" relative="1" as="geometry">
                        <mxPoint x="230" y="430" as="sourcePoint"/>
                        <mxPoint x="280" y="380" as="targetPoint"/>
                    </mxGeometry>
                </mxCell>
                <mxCell id="7" value="" style="endArrow=none;html=1;entryX=0;entryY=0.5;entryDx=0;entryDy=0;entryPerimeter=0;" edge="1" parent="1" target="2">
                    <mxGeometry width="50" height="50" relative="1" as="geometry">
                        <mxPoint x="240" y="400" as="sourcePoint"/>
                        <mxPoint x="370" y="430" as="targetPoint"/>
                    </mxGeometry>
                </mxCell>
                <mxCell id="8" value="" style="endArrow=none;html=1;exitX=0;exitY=0.5;exitDx=0;exitDy=0;exitPerimeter=0;entryX=1;entryY=1;entryDx=0;entryDy=0;entryPerimeter=0;" edge="1" parent="1" source="5" target="2">
                    <mxGeometry width="50" height="50" relative="1" as="geometry">
                        <mxPoint x="350" y="450" as="sourcePoint"/>
                        <mxPoint x="400" y="400" as="targetPoint"/>
                        <Array as="points">
                            <mxPoint x="460" y="450"/>
                        </Array>
                    </mxGeometry>
                </mxCell>
                <mxCell id="9" value="" style="endArrow=none;html=1;exitX=1;exitY=0;exitDx=0;exitDy=0;exitPerimeter=0;" edge="1" parent="1" source="2">
                    <mxGeometry width="50" height="50" relative="1" as="geometry">
                        <mxPoint x="360" y="330" as="sourcePoint"/>
                        <mxPoint x="454" y="200" as="targetPoint"/>
                    </mxGeometry>
                </mxCell>
                <mxCell id="10" value="" style="group;rotation=-180;" vertex="1" connectable="0" parent="1">
                    <mxGeometry x="220" y="170" width="40" height="32" as="geometry"/>
                </mxCell>
                <mxCell id="11" value="" style="endArrow=none;html=1;" edge="1" parent="10">
                    <mxGeometry width="50" height="50" relative="1" as="geometry">
                        <mxPoint x="40" y="12" as="sourcePoint"/>
                        <mxPoint y="12" as="targetPoint"/>
                    </mxGeometry>
                </mxCell>
                <mxCell id="12" value="" style="endArrow=none;html=1;" edge="1" parent="10">
                    <mxGeometry width="50" height="50" relative="1" as="geometry">
                        <mxPoint x="35" y="8" as="sourcePoint"/>
                        <mxPoint x="5" y="8" as="targetPoint"/>
                    </mxGeometry>
                </mxCell>
                <mxCell id="13" value="" style="endArrow=none;html=1;" edge="1" parent="10">
                    <mxGeometry width="50" height="50" relative="1" as="geometry">
                        <mxPoint x="30" y="4" as="sourcePoint"/>
                        <mxPoint x="9" y="4" as="targetPoint"/>
                    </mxGeometry>
                </mxCell>
                <mxCell id="14" value="" style="endArrow=none;html=1;" edge="1" parent="10">
                    <mxGeometry width="50" height="50" relative="1" as="geometry">
                        <mxPoint x="20" y="32" as="sourcePoint"/>
                        <mxPoint x="20" y="12" as="targetPoint"/>
                    </mxGeometry>
                </mxCell>
                <mxCell id="15" value="" style="endArrow=none;html=1;" edge="1" parent="10">
                    <mxGeometry width="50" height="50" relative="1" as="geometry">
                        <mxPoint x="24" as="sourcePoint"/>
                        <mxPoint x="14" as="targetPoint"/>
                    </mxGeometry>
                </mxCell>
                <mxCell id="16" value="" style="group;rotation=-180;" vertex="1" connectable="0" parent="1">
                    <mxGeometry x="434" y="169" width="40" height="32" as="geometry"/>
                </mxCell>
                <mxCell id="17" value="" style="endArrow=none;html=1;" edge="1" parent="16">
                    <mxGeometry width="50" height="50" relative="1" as="geometry">
                        <mxPoint x="40" y="12" as="sourcePoint"/>
                        <mxPoint y="12" as="targetPoint"/>
                    </mxGeometry>
                </mxCell>
                <mxCell id="18" value="" style="endArrow=none;html=1;" edge="1" parent="16">
                    <mxGeometry width="50" height="50" relative="1" as="geometry">
                        <mxPoint x="35" y="8" as="sourcePoint"/>
                        <mxPoint x="5" y="8" as="targetPoint"/>
                    </mxGeometry>
                </mxCell>
                <mxCell id="19" value="" style="endArrow=none;html=1;" edge="1" parent="16">
                    <mxGeometry width="50" height="50" relative="1" as="geometry">
                        <mxPoint x="30" y="4" as="sourcePoint"/>
                        <mxPoint x="9" y="4" as="targetPoint"/>
                    </mxGeometry>
                </mxCell>
                <mxCell id="20" value="" style="endArrow=none;html=1;" edge="1" parent="16">
                    <mxGeometry width="50" height="50" relative="1" as="geometry">
                        <mxPoint x="20" y="32" as="sourcePoint"/>
                        <mxPoint x="20" y="12" as="targetPoint"/>
                    </mxGeometry>
                </mxCell>
                <mxCell id="21" value="" style="endArrow=none;html=1;" edge="1" parent="16">
                    <mxGeometry width="50" height="50" relative="1" as="geometry">
                        <mxPoint x="24" as="sourcePoint"/>
                        <mxPoint x="14" as="targetPoint"/>
                    </mxGeometry>
                </mxCell>
                <mxCell id="22" value="" style="group;rotation=0;direction=west;" vertex="1" connectable="0" parent="1">
                    <mxGeometry x="438.5" y="620" width="40" height="32" as="geometry"/>
                </mxCell>
                <mxCell id="23" value="" style="endArrow=none;html=1;" edge="1" parent="22">
                    <mxGeometry width="50" height="50" relative="1" as="geometry">
                        <mxPoint y="20" as="sourcePoint"/>
                        <mxPoint x="40" y="20" as="targetPoint"/>
                    </mxGeometry>
                </mxCell>
                <mxCell id="24" value="" style="endArrow=none;html=1;" edge="1" parent="22">
                    <mxGeometry width="50" height="50" relative="1" as="geometry">
                        <mxPoint x="5" y="24" as="sourcePoint"/>
                        <mxPoint x="35" y="24" as="targetPoint"/>
                    </mxGeometry>
                </mxCell>
                <mxCell id="25" value="" style="endArrow=none;html=1;" edge="1" parent="22">
                    <mxGeometry width="50" height="50" relative="1" as="geometry">
                        <mxPoint x="10" y="28" as="sourcePoint"/>
                        <mxPoint x="31" y="28" as="targetPoint"/>
                    </mxGeometry>
                </mxCell>
                <mxCell id="26" value="" style="endArrow=none;html=1;" edge="1" parent="22">
                    <mxGeometry width="50" height="50" relative="1" as="geometry">
                        <mxPoint x="20" as="sourcePoint"/>
                        <mxPoint x="20" y="20" as="targetPoint"/>
                    </mxGeometry>
                </mxCell>
                <mxCell id="27" value="" style="endArrow=none;html=1;" edge="1" parent="22">
                    <mxGeometry width="50" height="50" relative="1" as="geometry">
                        <mxPoint x="16" y="32" as="sourcePoint"/>
                        <mxPoint x="26" y="32" as="targetPoint"/>
                    </mxGeometry>
                </mxCell>
                <mxCell id="28" value="" style="group;rotation=0;direction=west;" vertex="1" connectable="0" parent="1">
                    <mxGeometry x="220" y="620" width="40" height="32" as="geometry"/>
                </mxCell>
                <mxCell id="29" value="" style="endArrow=none;html=1;" edge="1" parent="28">
                    <mxGeometry width="50" height="50" relative="1" as="geometry">
                        <mxPoint y="20" as="sourcePoint"/>
                        <mxPoint x="40" y="20" as="targetPoint"/>
                    </mxGeometry>
                </mxCell>
                <mxCell id="30" value="" style="endArrow=none;html=1;" edge="1" parent="28">
                    <mxGeometry width="50" height="50" relative="1" as="geometry">
                        <mxPoint x="5" y="24" as="sourcePoint"/>
                        <mxPoint x="35" y="24" as="targetPoint"/>
                    </mxGeometry>
                </mxCell>
                <mxCell id="31" value="" style="endArrow=none;html=1;" edge="1" parent="28">
                    <mxGeometry width="50" height="50" relative="1" as="geometry">
                        <mxPoint x="10" y="28" as="sourcePoint"/>
                        <mxPoint x="31" y="28" as="targetPoint"/>
                    </mxGeometry>
                </mxCell>
                <mxCell id="32" value="" style="endArrow=none;html=1;" edge="1" parent="28">
                    <mxGeometry width="50" height="50" relative="1" as="geometry">
                        <mxPoint x="20" as="sourcePoint"/>
                        <mxPoint x="20" y="20" as="targetPoint"/>
                    </mxGeometry>
                </mxCell>
                <mxCell id="33" value="" style="endArrow=none;html=1;" edge="1" parent="28">
                    <mxGeometry width="50" height="50" relative="1" as="geometry">
                        <mxPoint x="16" y="32" as="sourcePoint"/>
                        <mxPoint x="26" y="32" as="targetPoint"/>
                    </mxGeometry>
                </mxCell>
                <mxCell id="34" value="R1" style="text;html=1;align=center;verticalAlign=middle;resizable=0;points=[];autosize=1;strokeColor=none;fillColor=none;" vertex="1" parent="1">
                    <mxGeometry x="250" y="235" width="40" height="30" as="geometry"/>
                </mxCell>
                <mxCell id="35" value="R2" style="text;html=1;align=center;verticalAlign=middle;resizable=0;points=[];autosize=1;strokeColor=none;fillColor=none;" vertex="1" parent="1">
                    <mxGeometry x="250" y="555" width="40" height="30" as="geometry"/>
                </mxCell>
                <mxCell id="36" value="RE" style="text;html=1;align=center;verticalAlign=middle;resizable=0;points=[];autosize=1;strokeColor=none;fillColor=none;" vertex="1" parent="1">
                    <mxGeometry x="470" y="555" width="40" height="30" as="geometry"/>
                </mxCell>
                <mxCell id="37" value="Q1" style="text;html=1;align=center;verticalAlign=middle;resizable=0;points=[];autosize=1;strokeColor=none;fillColor=none;" vertex="1" parent="1">
                    <mxGeometry x="454" y="385" width="40" height="30" as="geometry"/>
                </mxCell>
                <mxCell id="38" value="" style="shape=flexArrow;endArrow=classic;html=1;" edge="1" parent="1">
                    <mxGeometry width="50" height="50" relative="1" as="geometry">
                        <mxPoint x="560" y="399.71" as="sourcePoint"/>
                        <mxPoint x="600" y="399.71" as="targetPoint"/>
                    </mxGeometry>
                </mxCell>
                <mxCell id="39" value="" style="pointerEvents=1;verticalLabelPosition=bottom;shadow=0;dashed=0;align=center;html=1;verticalAlign=top;shape=mxgraph.electrical.resistors.resistor_2;direction=south;" vertex="1" parent="1">
                    <mxGeometry x="780" y="520" width="20" height="100" as="geometry"/>
                </mxCell>
                <mxCell id="40" value="" style="group;rotation=0;direction=west;" vertex="1" connectable="0" parent="1">
                    <mxGeometry x="770" y="620" width="40" height="32" as="geometry"/>
                </mxCell>
                <mxCell id="41" value="" style="endArrow=none;html=1;" edge="1" parent="40">
                    <mxGeometry width="50" height="50" relative="1" as="geometry">
                        <mxPoint y="20" as="sourcePoint"/>
                        <mxPoint x="40" y="20" as="targetPoint"/>
                    </mxGeometry>
                </mxCell>
                <mxCell id="42" value="" style="endArrow=none;html=1;" edge="1" parent="40">
                    <mxGeometry width="50" height="50" relative="1" as="geometry">
                        <mxPoint x="5" y="24" as="sourcePoint"/>
                        <mxPoint x="35" y="24" as="targetPoint"/>
                    </mxGeometry>
                </mxCell>
                <mxCell id="43" value="" style="endArrow=none;html=1;" edge="1" parent="40">
                    <mxGeometry width="50" height="50" relative="1" as="geometry">
                        <mxPoint x="10" y="28" as="sourcePoint"/>
                        <mxPoint x="31" y="28" as="targetPoint"/>
                    </mxGeometry>
                </mxCell>
                <mxCell id="44" value="" style="endArrow=none;html=1;" edge="1" parent="40">
                    <mxGeometry width="50" height="50" relative="1" as="geometry">
                        <mxPoint x="20" as="sourcePoint"/>
                        <mxPoint x="20" y="20" as="targetPoint"/>
                    </mxGeometry>
                </mxCell>
                <mxCell id="45" value="" style="endArrow=none;html=1;" edge="1" parent="40">
                    <mxGeometry width="50" height="50" relative="1" as="geometry">
                        <mxPoint x="16" y="32" as="sourcePoint"/>
                        <mxPoint x="26" y="32" as="targetPoint"/>
                    </mxGeometry>
                </mxCell>
                <mxCell id="46" value="" style="pointerEvents=1;verticalLabelPosition=bottom;shadow=0;dashed=0;align=center;html=1;verticalAlign=top;shape=mxgraph.electrical.resistors.resistor_2;direction=south;" vertex="1" parent="1">
                    <mxGeometry x="910" y="360" width="20" height="100" as="geometry"/>
                </mxCell>
                <mxCell id="47" value="" style="pointerEvents=1;verticalLabelPosition=bottom;shadow=0;dashed=0;align=center;html=1;verticalAlign=top;shape=mxgraph.electrical.resistors.resistor_2;direction=south;" vertex="1" parent="1">
                    <mxGeometry x="910" y="520" width="20" height="100" as="geometry"/>
                </mxCell>
                <mxCell id="48" value="" style="group;rotation=0;direction=west;" vertex="1" connectable="0" parent="1">
                    <mxGeometry x="900" y="620" width="40" height="32" as="geometry"/>
                </mxCell>
                <mxCell id="49" value="" style="endArrow=none;html=1;" edge="1" parent="48">
                    <mxGeometry width="50" height="50" relative="1" as="geometry">
                        <mxPoint y="20" as="sourcePoint"/>
                        <mxPoint x="40" y="20" as="targetPoint"/>
                    </mxGeometry>
                </mxCell>
                <mxCell id="50" value="" style="endArrow=none;html=1;" edge="1" parent="48">
                    <mxGeometry width="50" height="50" relative="1" as="geometry">
                        <mxPoint x="5" y="24" as="sourcePoint"/>
                        <mxPoint x="35" y="24" as="targetPoint"/>
                    </mxGeometry>
                </mxCell>
                <mxCell id="51" value="" style="endArrow=none;html=1;" edge="1" parent="48">
                    <mxGeometry width="50" height="50" relative="1" as="geometry">
                        <mxPoint x="10" y="28" as="sourcePoint"/>
                        <mxPoint x="31" y="28" as="targetPoint"/>
                    </mxGeometry>
                </mxCell>
                <mxCell id="52" value="" style="endArrow=none;html=1;" edge="1" parent="48">
                    <mxGeometry width="50" height="50" relative="1" as="geometry">
                        <mxPoint x="20" as="sourcePoint"/>
                        <mxPoint x="20" y="20" as="targetPoint"/>
                    </mxGeometry>
                </mxCell>
                <mxCell id="53" value="" style="endArrow=none;html=1;" edge="1" parent="48">
                    <mxGeometry width="50" height="50" relative="1" as="geometry">
                        <mxPoint x="16" y="32" as="sourcePoint"/>
                        <mxPoint x="26" y="32" as="targetPoint"/>
                    </mxGeometry>
                </mxCell>
                <mxCell id="56" value="" style="endArrow=none;html=1;exitX=0;exitY=0.5;exitDx=0;exitDy=0;exitPerimeter=0;entryX=1;entryY=0.5;entryDx=0;entryDy=0;entryPerimeter=0;" edge="1" parent="1" source="47" target="46">
                    <mxGeometry width="50" height="50" relative="1" as="geometry">
                        <mxPoint x="830" y="500" as="sourcePoint"/>
                        <mxPoint x="880" y="450" as="targetPoint"/>
                    </mxGeometry>
                </mxCell>
                <mxCell id="57" value="" style="pointerEvents=1;verticalLabelPosition=bottom;shadow=0;dashed=0;align=center;html=1;verticalAlign=top;shape=mxgraph.electrical.signal_sources.source;aspect=fixed;points=[[0.5,0,0],[1,0.5,0],[0.5,1,0],[0,0.5,0]];elSignalType=dc2;elSourceType=dependent;" vertex="1" parent="1">
                    <mxGeometry x="890" y="220" width="60" height="60" as="geometry"/>
                </mxCell>
                <mxCell id="58" value="" style="endArrow=none;html=1;exitX=0;exitY=0.5;exitDx=0;exitDy=0;exitPerimeter=0;entryX=0.5;entryY=1;entryDx=0;entryDy=0;entryPerimeter=0;" edge="1" parent="1" source="46" target="57">
                    <mxGeometry width="50" height="50" relative="1" as="geometry">
                        <mxPoint x="930" y="530" as="sourcePoint"/>
                        <mxPoint x="930" y="470" as="targetPoint"/>
                    </mxGeometry>
                </mxCell>
                <mxCell id="59" value="" style="endArrow=none;html=1;" edge="1" parent="1" source="94">
                    <mxGeometry width="50" height="50" relative="1" as="geometry">
                        <mxPoint x="920" y="360" as="sourcePoint"/>
                        <mxPoint x="720" y="360" as="targetPoint"/>
                    </mxGeometry>
                </mxCell>
                <mxCell id="60" value="" style="endArrow=none;html=1;exitX=0;exitY=0.5;exitDx=0;exitDy=0;exitPerimeter=0;" edge="1" parent="1" source="39">
                    <mxGeometry width="50" height="50" relative="1" as="geometry">
                        <mxPoint x="789.83" y="500" as="sourcePoint"/>
                        <mxPoint x="790" y="360" as="targetPoint"/>
                    </mxGeometry>
                </mxCell>
                <mxCell id="61" value="Rth=R1//R2" style="text;html=1;align=center;verticalAlign=middle;resizable=0;points=[];autosize=1;strokeColor=none;fillColor=none;" vertex="1" parent="1">
                    <mxGeometry x="800" y="555" width="90" height="30" as="geometry"/>
                </mxCell>
                <mxCell id="62" value="RE" style="text;html=1;align=center;verticalAlign=middle;resizable=0;points=[];autosize=1;strokeColor=none;fillColor=none;" vertex="1" parent="1">
                    <mxGeometry x="930" y="555" width="40" height="30" as="geometry"/>
                </mxCell>
                <mxCell id="63" value="r_e1" style="text;html=1;align=center;verticalAlign=middle;resizable=0;points=[];autosize=1;strokeColor=none;fillColor=none;" vertex="1" parent="1">
                    <mxGeometry x="925" y="395" width="50" height="30" as="geometry"/>
                </mxCell>
                <mxCell id="64" value="ai_e = gmVbe" style="text;html=1;align=center;verticalAlign=middle;resizable=0;points=[];autosize=1;strokeColor=none;fillColor=none;" vertex="1" parent="1">
                    <mxGeometry x="925" y="270" width="100" height="30" as="geometry"/>
                </mxCell>
                <mxCell id="65" value="" style="shape=cross;whiteSpace=wrap;html=1;size=0;" vertex="1" parent="1">
                    <mxGeometry x="890" y="369.42" width="10" height="10" as="geometry"/>
                </mxCell>
                <mxCell id="66" value="" style="endArrow=none;html=1;" edge="1" parent="1">
                    <mxGeometry width="50" height="50" relative="1" as="geometry">
                        <mxPoint x="890" y="449.3099999999999" as="sourcePoint"/>
                        <mxPoint x="900" y="449.3099999999999" as="targetPoint"/>
                    </mxGeometry>
                </mxCell>
                <mxCell id="67" value="Vbe" style="text;html=1;align=center;verticalAlign=middle;resizable=0;points=[];autosize=1;strokeColor=none;fillColor=none;" vertex="1" parent="1">
                    <mxGeometry x="870" y="394.42" width="40" height="30" as="geometry"/>
                </mxCell>
                <mxCell id="68" value="" style="endArrow=none;html=1;entryX=0.667;entryY=0.389;entryDx=0;entryDy=0;entryPerimeter=0;exitX=0;exitY=0.5;exitDx=0;exitDy=0;" edge="1" parent="1" source="69">
                    <mxGeometry width="50" height="50" relative="1" as="geometry">
                        <mxPoint x="1118.3333333333335" y="496" as="sourcePoint"/>
                        <mxPoint x="920" y="494.28999999999996" as="targetPoint"/>
                    </mxGeometry>
                </mxCell>
                <mxCell id="69" value="" style="ellipse;whiteSpace=wrap;html=1;aspect=fixed;" vertex="1" parent="1">
                    <mxGeometry x="1015" y="490" width="10" height="10" as="geometry"/>
                </mxCell>
                <mxCell id="70" value="vo" style="text;html=1;align=center;verticalAlign=middle;resizable=0;points=[];autosize=1;strokeColor=none;fillColor=none;" vertex="1" parent="1">
                    <mxGeometry x="1000" y="536" width="40" height="30" as="geometry"/>
                </mxCell>
                <mxCell id="71" value="" style="shape=cross;whiteSpace=wrap;html=1;size=0;" vertex="1" parent="1">
                    <mxGeometry x="1015" y="506" width="10" height="10" as="geometry"/>
                </mxCell>
                <mxCell id="72" value="" style="endArrow=none;html=1;" edge="1" parent="1">
                    <mxGeometry width="50" height="50" relative="1" as="geometry">
                        <mxPoint x="1015" y="598" as="sourcePoint"/>
                        <mxPoint x="1025" y="598" as="targetPoint"/>
                    </mxGeometry>
                </mxCell>
                <mxCell id="73" value="" style="group" vertex="1" connectable="0" parent="1">
                    <mxGeometry x="1000" y="618" width="40" height="32" as="geometry"/>
                </mxCell>
                <mxCell id="74" value="" style="endArrow=none;html=1;" edge="1" parent="73">
                    <mxGeometry width="50" height="50" relative="1" as="geometry">
                        <mxPoint y="20" as="sourcePoint"/>
                        <mxPoint x="40" y="20" as="targetPoint"/>
                    </mxGeometry>
                </mxCell>
                <mxCell id="75" value="" style="endArrow=none;html=1;" edge="1" parent="73">
                    <mxGeometry width="50" height="50" relative="1" as="geometry">
                        <mxPoint x="5" y="23.91999999999996" as="sourcePoint"/>
                        <mxPoint x="35" y="24" as="targetPoint"/>
                    </mxGeometry>
                </mxCell>
                <mxCell id="76" value="" style="endArrow=none;html=1;" edge="1" parent="73">
                    <mxGeometry width="50" height="50" relative="1" as="geometry">
                        <mxPoint x="10.5" y="27.91999999999996" as="sourcePoint"/>
                        <mxPoint x="31" y="28" as="targetPoint"/>
                    </mxGeometry>
                </mxCell>
                <mxCell id="77" value="" style="endArrow=none;html=1;" edge="1" parent="73">
                    <mxGeometry width="50" height="50" relative="1" as="geometry">
                        <mxPoint x="20" as="sourcePoint"/>
                        <mxPoint x="20" y="20" as="targetPoint"/>
                    </mxGeometry>
                </mxCell>
                <mxCell id="78" value="" style="endArrow=none;html=1;" edge="1" parent="73">
                    <mxGeometry width="50" height="50" relative="1" as="geometry">
                        <mxPoint x="16" y="32" as="sourcePoint"/>
                        <mxPoint x="26" y="32" as="targetPoint"/>
                    </mxGeometry>
                </mxCell>
                <mxCell id="79" value="" style="ellipse;whiteSpace=wrap;html=1;aspect=fixed;" vertex="1" parent="1">
                    <mxGeometry x="1015" y="608" width="10" height="10" as="geometry"/>
                </mxCell>
                <mxCell id="80" value="" style="shape=flexArrow;endArrow=classic;html=1;width=3.888888888888889;endSize=1.4972067039106147;endWidth=6.828057107386718;" edge="1" parent="1">
                    <mxGeometry width="50" height="50" relative="1" as="geometry">
                        <mxPoint x="1078" y="714.3600000000001" as="sourcePoint"/>
                        <mxPoint x="988" y="576" as="targetPoint"/>
                        <Array as="points">
                            <mxPoint x="1078" y="576.3600000000001"/>
                        </Array>
                    </mxGeometry>
                </mxCell>
                <mxCell id="81" value="Rout" style="text;html=1;align=center;verticalAlign=middle;resizable=0;points=[];autosize=1;strokeColor=none;fillColor=none;" vertex="1" parent="1">
                    <mxGeometry x="1054" y="713" width="50" height="30" as="geometry"/>
                </mxCell>
                <mxCell id="82" value="vi" style="text;html=1;align=center;verticalAlign=middle;resizable=0;points=[];autosize=1;strokeColor=none;fillColor=none;" vertex="1" parent="1">
                    <mxGeometry x="707" y="421" width="30" height="30" as="geometry"/>
                </mxCell>
                <mxCell id="83" value="" style="shape=cross;whiteSpace=wrap;html=1;size=0;" vertex="1" parent="1">
                    <mxGeometry x="717" y="375" width="10" height="10" as="geometry"/>
                </mxCell>
                <mxCell id="84" value="" style="endArrow=none;html=1;" edge="1" parent="1">
                    <mxGeometry width="50" height="50" relative="1" as="geometry">
                        <mxPoint x="717" y="526" as="sourcePoint"/>
                        <mxPoint x="727" y="526" as="targetPoint"/>
                    </mxGeometry>
                </mxCell>
                <mxCell id="85" value="" style="group" vertex="1" connectable="0" parent="1">
                    <mxGeometry x="702" y="546" width="40" height="32" as="geometry"/>
                </mxCell>
                <mxCell id="86" value="" style="endArrow=none;html=1;" edge="1" parent="85">
                    <mxGeometry width="50" height="50" relative="1" as="geometry">
                        <mxPoint y="20" as="sourcePoint"/>
                        <mxPoint x="40" y="20" as="targetPoint"/>
                    </mxGeometry>
                </mxCell>
                <mxCell id="87" value="" style="endArrow=none;html=1;" edge="1" parent="85">
                    <mxGeometry width="50" height="50" relative="1" as="geometry">
                        <mxPoint x="5" y="23.91999999999996" as="sourcePoint"/>
                        <mxPoint x="35" y="24" as="targetPoint"/>
                    </mxGeometry>
                </mxCell>
                <mxCell id="88" value="" style="endArrow=none;html=1;" edge="1" parent="85">
                    <mxGeometry width="50" height="50" relative="1" as="geometry">
                        <mxPoint x="10.5" y="27.91999999999996" as="sourcePoint"/>
                        <mxPoint x="31" y="28" as="targetPoint"/>
                    </mxGeometry>
                </mxCell>
                <mxCell id="89" value="" style="endArrow=none;html=1;" edge="1" parent="85">
                    <mxGeometry width="50" height="50" relative="1" as="geometry">
                        <mxPoint x="20" as="sourcePoint"/>
                        <mxPoint x="20" y="20" as="targetPoint"/>
                    </mxGeometry>
                </mxCell>
                <mxCell id="90" value="" style="endArrow=none;html=1;" edge="1" parent="85">
                    <mxGeometry width="50" height="50" relative="1" as="geometry">
                        <mxPoint x="16" y="32" as="sourcePoint"/>
                        <mxPoint x="26" y="32" as="targetPoint"/>
                    </mxGeometry>
                </mxCell>
                <mxCell id="91" value="" style="ellipse;whiteSpace=wrap;html=1;aspect=fixed;" vertex="1" parent="1">
                    <mxGeometry x="717" y="536" width="10" height="10" as="geometry"/>
                </mxCell>
                <mxCell id="92" value="" style="shape=flexArrow;endArrow=classic;html=1;width=3.888888888888889;endSize=1.4972067039106147;endWidth=6.828057107386718;" edge="1" parent="1">
                    <mxGeometry width="50" height="50" relative="1" as="geometry">
                        <mxPoint x="650" y="619" as="sourcePoint"/>
                        <mxPoint x="760" y="490" as="targetPoint"/>
                        <Array as="points">
                            <mxPoint x="650" y="489"/>
                        </Array>
                    </mxGeometry>
                </mxCell>
                <mxCell id="93" value="Rin" style="text;html=1;align=center;verticalAlign=middle;resizable=0;points=[];autosize=1;strokeColor=none;fillColor=none;" vertex="1" parent="1">
                    <mxGeometry x="632" y="626" width="40" height="30" as="geometry"/>
                </mxCell>
                <mxCell id="95" value="" style="endArrow=none;html=1;" edge="1" parent="1" target="94">
                    <mxGeometry width="50" height="50" relative="1" as="geometry">
                        <mxPoint x="920" y="360" as="sourcePoint"/>
                        <mxPoint x="720" y="360" as="targetPoint"/>
                    </mxGeometry>
                </mxCell>
                <mxCell id="94" value="" style="ellipse;whiteSpace=wrap;html=1;aspect=fixed;" vertex="1" parent="1">
                    <mxGeometry x="717" y="356" width="10" height="10" as="geometry"/>
                </mxCell>
                <mxCell id="96" value="" style="group" vertex="1" connectable="0" parent="1">
                    <mxGeometry x="1020" y="220" width="40" height="32" as="geometry"/>
                </mxCell>
                <mxCell id="97" value="" style="endArrow=none;html=1;" edge="1" parent="96">
                    <mxGeometry width="50" height="50" relative="1" as="geometry">
                        <mxPoint y="20" as="sourcePoint"/>
                        <mxPoint x="40" y="20" as="targetPoint"/>
                    </mxGeometry>
                </mxCell>
                <mxCell id="98" value="" style="endArrow=none;html=1;" edge="1" parent="96">
                    <mxGeometry width="50" height="50" relative="1" as="geometry">
                        <mxPoint x="5" y="23.91999999999996" as="sourcePoint"/>
                        <mxPoint x="35" y="24" as="targetPoint"/>
                    </mxGeometry>
                </mxCell>
                <mxCell id="99" value="" style="endArrow=none;html=1;" edge="1" parent="96">
                    <mxGeometry width="50" height="50" relative="1" as="geometry">
                        <mxPoint x="10.5" y="27.91999999999996" as="sourcePoint"/>
                        <mxPoint x="31" y="28" as="targetPoint"/>
                    </mxGeometry>
                </mxCell>
                <mxCell id="100" value="" style="endArrow=none;html=1;" edge="1" parent="96">
                    <mxGeometry width="50" height="50" relative="1" as="geometry">
                        <mxPoint x="20" as="sourcePoint"/>
                        <mxPoint x="20" y="20" as="targetPoint"/>
                    </mxGeometry>
                </mxCell>
                <mxCell id="101" value="" style="endArrow=none;html=1;" edge="1" parent="96">
                    <mxGeometry width="50" height="50" relative="1" as="geometry">
                        <mxPoint x="16" y="32" as="sourcePoint"/>
                        <mxPoint x="26" y="32" as="targetPoint"/>
                    </mxGeometry>
                </mxCell>
                <mxCell id="102" value="" style="endArrow=none;html=1;entryX=0.5;entryY=0;entryDx=0;entryDy=0;entryPerimeter=0;" edge="1" parent="1" target="57">
                    <mxGeometry width="50" height="50" relative="1" as="geometry">
                        <mxPoint x="1040" y="220" as="sourcePoint"/>
                        <mxPoint x="930" y="290" as="targetPoint"/>
                        <Array as="points">
                            <mxPoint x="1040" y="200"/>
                            <mxPoint x="920" y="200"/>
                        </Array>
                    </mxGeometry>
                </mxCell>
            </root>
        </mxGraphModel>
    </diagram>
</mxfile>